# xmcd
#
# Track frame offsets:
#	150
#	11959
#	23687
#	37551
#	49710
#	60325
#	78080
#	92782
#	104941
#	118305
#	131512
#	144173
#	156078
#	169568
#	180865
#
# Disc length: 2574 seconds
#
# Revision: 1
# Processed by: cddbd v1.5.2PL0 Copyright (c) Steve Scherf et al.
# Submitted via: audiograbber 1.83.01
#
DISCID=b10a0c0f
DTITLE=Reba McEntire - Country Superstar CD1
DYEAR=1993
DGENRE=Country
TTITLE0=Why Do We Want (What We Know We Can't Have)
TTITLE1=I Sacrificed More Than You'll Ever Lose
TTITLE2=Love Isn't Love ('Til You Give It Away)
TTITLE3=(You Lift Me) Up To Heaven
TTITLE4=Can't Even Get The Blues No More
TTITLE5=I've Never Stopped Dreamin Of You
TTITLE6=Today All Over Again
TTITLE7=I'm Not That Lonely Yet
TTITLE8=Sweet Dreams
TTITLE9=Runaway Heart
TTITLE10=I Don't Want To Be A One Night Stand
TTITLE11=One To One
TTITLE12=I've Waited All My Life For You
TTITLE13=Tears On My Pillow
TTITLE14=Look At The One (Who's Been Lookin' At You)
EXTD=
EXTT0=
EXTT1=
EXTT2=
EXTT3=
EXTT4=
EXTT5=
EXTT6=
EXTT7=
EXTT8=
EXTT9=
EXTT10=
EXTT11=
EXTT12=
EXTT13=
EXTT14=
PLAYORDER=
